<svg width="14" height="14" viewBox="0 0 14 14" fill="none" xmlns="http://www.w3.org/2000/svg">
    <path d="M13.926 3.20162L12.7818 2.07471C12.7363 2.0249 12.6648 2 12.5997 2C12.5282 2 12.4632 2.0249 12.4177 2.07471L4.48597 9.72646L1.59935 6.96212C1.54734 6.91231 1.48232 6.88741 1.41731 6.88741C1.35229 6.88741 1.28728 6.91231 1.23527 6.96212L0.078017 8.07034C-0.0260056 8.16996 -0.0260056 8.32561 0.078017 8.42523L3.71881 11.9118C3.95286 12.1359 4.23892 12.2667 4.47947 12.2667C4.82405 12.2667 5.12311 12.0239 5.23364 11.9242H5.24014L13.9325 3.5565C14.0235 3.45066 14.0235 3.29501 13.926 3.20162Z"
          fill="#414141"/>
</svg>
