<svg width="14" height="14" viewBox="0 0 14 14" fill="none" xmlns="http://www.w3.org/2000/svg">
    <path d="M9.9297 0.240176V2.73439H12.4238L9.9297 0.240176Z" fill="#414141"/>
    <path d="M9.51953 3.55469C9.29301 3.55469 9.10937 3.37105 9.10937 3.14453V0H3.23047C2.55199 0 2 0.551988 2 1.23047V12.7695C2 13.448 2.55199 14 3.23047 14H11.4336C12.1121 14 12.6641 13.448 12.6641 12.7695V3.55469H9.51953ZM5.73305 9.47179C5.87808 9.64581 5.85454 9.90445 5.68052 10.0495C5.60385 10.1133 5.51075 10.1445 5.41816 10.1445C5.30064 10.1445 5.18399 10.0943 5.10286 9.99696L3.73567 8.35633C3.60891 8.20422 3.60891 7.98328 3.73567 7.83117L5.10286 6.19054C5.24789 6.01653 5.50651 5.99304 5.68052 6.13804C5.85454 6.28307 5.87808 6.54169 5.73305 6.71571L4.58467 8.09375L5.73305 9.47179ZM8.26801 6.58284L7.17426 9.86409C7.11694 10.0359 6.95693 10.1446 6.78518 10.1446C6.7422 10.1446 6.69845 10.1378 6.65544 10.1235C6.44054 10.0519 6.32441 9.81958 6.39603 9.60468L7.48978 6.32343C7.56142 6.10854 7.7937 5.99244 8.0086 6.06402C8.22352 6.13566 8.33965 6.36792 8.26801 6.58284ZM10.9284 8.35633L9.56118 9.99696C9.48005 10.0943 9.36337 10.1445 9.24587 10.1445C9.15329 10.1445 9.06021 10.1134 8.98351 10.0495C8.8095 9.90443 8.78595 9.64581 8.93098 9.47179L10.0794 8.09375L8.93101 6.71571C8.78598 6.54169 8.80952 6.28305 8.98354 6.13804C9.15747 5.99304 9.41614 6.01653 9.5612 6.19054L10.9284 7.83117C11.0551 7.98328 11.0551 8.20422 10.9284 8.35633Z"
          fill="#414141"/>
</svg>
