<svg width="16" height="16" viewBox="0 0 16 16" fill="none" xmlns="http://www.w3.org/2000/svg">
<rect width="16" height="16" rx="3" fill="#6092C0" fill-opacity="0.1"/>
<rect x="0.5" y="0.5" width="15" height="15" rx="2.5" stroke="#6092C0" stroke-opacity="0.3"/>
<path d="M11.1805 4H4.81411C4.5982 4 4.39112 4.08577 4.23845 4.23845C4.08577 4.39112 4 4.5982 4 4.81411V11.1859C4 11.4018 4.08577 11.6089 4.23845 11.7616C4.39112 11.9142 4.5982 12 4.81411 12H11.1805C11.3964 12 11.6034 11.9142 11.7561 11.7616C11.9088 11.6089 11.9946 11.4018 11.9946 11.1859V4.81954C11.9953 4.71217 11.9748 4.60572 11.9342 4.50632C11.8936 4.40692 11.8337 4.31654 11.7581 4.24036C11.6824 4.16419 11.5924 4.10374 11.4933 4.06249C11.3941 4.02123 11.2878 4 11.1805 4ZM6.52782 11.5984H4.81411C4.70615 11.5984 4.60262 11.5555 4.52628 11.4791C4.44994 11.4028 4.40706 11.2993 4.40706 11.1913V10.4858H6.52782V11.5984ZM6.52782 10.0787H4.40163V8.96608H6.52782V10.0787ZM6.52782 8.55902H4.40163V7.4464H6.52782V8.55902ZM6.52782 7.03935H4.40163V5.92673H6.52782V7.03935ZM9.0597 11.5984H6.93487V10.4858H9.0597V11.5984ZM9.0597 10.0787H6.93487V8.96608H9.0597V10.0787ZM9.0597 8.55902H6.93487V7.4464H9.0597V8.55902ZM9.0597 7.03935H6.93487V5.92673H9.0597V7.03935ZM11.5929 11.1859C11.5929 11.2938 11.5501 11.3974 11.4737 11.4737C11.3974 11.5501 11.2938 11.5929 11.1859 11.5929H9.46676V10.4858H11.5929V11.1859ZM11.5929 10.0787H9.46676V8.96608H11.5929V10.0787ZM11.5929 8.55902H9.46676V7.4464H11.5929V8.55902ZM11.5929 7.03935H9.46676V5.92673H11.5929V7.03935Z" fill="#4A7194"/>
</svg>
