<svg width="14" height="14" viewBox="0 0 14 14" fill="none" xmlns="http://www.w3.org/2000/svg">
    <path d="M0.839569 11.8348L2.41191 10.3529M10.5881 2.6471L12.1604 1.16522M5.29639 5.85296L4.03852 7.03846M7.07464 7.73977L5.81677 8.92527M3.44577 6.40953L6.40953 9.5542L5.46612 10.4433C5.26069 10.6433 5.0175 10.8005 4.75072 10.9056C4.48395 11.0107 4.19894 11.0616 3.91228 11.0554C3.62562 11.0493 3.34305 10.9861 3.08104 10.8697C2.81903 10.7532 2.58282 10.5858 2.38617 10.3771C2.18951 10.1685 2.03635 9.92277 1.93561 9.65432C1.83486 9.38588 1.78855 9.10007 1.79936 8.81355C1.81018 8.52703 1.8779 8.24553 1.9986 7.98544C2.11929 7.72536 2.29054 7.4919 2.50236 7.29866L3.44577 6.40953ZM9.5542 6.59045L6.59044 3.44577L7.53384 2.55664C7.73928 2.35663 7.98247 2.1995 8.24924 2.09441C8.51601 1.98932 8.80103 1.93837 9.08769 1.94453C9.37435 1.95069 9.65692 2.01384 9.91892 2.13029C10.1809 2.24675 10.4171 2.41419 10.6138 2.62284C10.8105 2.8315 10.9636 3.07721 11.0644 3.34565C11.1651 3.61409 11.2114 3.8999 11.2006 4.18642C11.1898 4.47294 11.1221 4.75445 11.0014 5.01453C10.8807 5.27461 10.7094 5.50808 10.4976 5.70132L9.5542 6.59045Z"
          stroke="#414141" stroke-width="1.5" stroke-linecap="round" stroke-linejoin="round"/>
</svg>
