<svg width="14" height="14" viewBox="0 0 14 14" fill="none" xmlns="http://www.w3.org/2000/svg">
    <path d="M1 6.10233V8.70911C1.89097 9.59111 3.92376 10.08 6.88 10.08C9.83624 10.08 11.869 9.59111 12.76 8.70911V6.10233C11.7918 6.76145 10.0339 7.27999 6.88 7.27999C3.72609 7.27999 1.96824 6.76145 1 6.10233Z"
          fill="#414141"/>
    <path d="M1 9.46231V12.04C1 13.3269 3.95791 14 6.88 14C9.80209 14 12.76 13.3269 12.76 12.04V9.46231C11.7918 10.1214 10.0339 10.64 6.88 10.64C3.72609 10.64 1.96824 10.1214 1 9.46231Z"
          fill="#414141"/>
    <path d="M6.88 0C3.95791 0 1 0.673121 1 1.96V1.98912C1.89097 2.87112 3.92376 3.36 6.88 3.36C9.83624 3.36 11.869 2.87112 12.76 1.98912V1.96C12.76 0.673121 9.80209 0 6.88 0Z"
          fill="#414141"/>
    <path d="M1 2.74234V5.34913C1.89097 6.23113 3.92376 6.72001 6.88 6.72001C9.83624 6.72001 11.869 6.23113 12.76 5.34913V2.74234C11.7918 3.40146 10.0339 3.92001 6.88 3.92001C3.72609 3.92001 1.96824 3.40146 1 2.74234Z"
          fill="#414141"/>
</svg>
