<svg width="14" height="14" viewBox="0 0 14 14" fill="none" xmlns="http://www.w3.org/2000/svg">
    <path d="M13.1923 5.25237C12.9989 5.25122 12.8123 5.18086 12.6663 5.05404C12.5202 4.92722 12.4244 4.75232 12.3962 4.56101L12.0258 1.97293L9.4365 1.60263C9.23522 1.57391 9.05224 1.47015 8.92428 1.31218C8.79633 1.15421 8.73285 0.953706 8.7466 0.750896C8.76034 0.548086 8.85029 0.357975 8.9984 0.218705C9.1465 0.0794345 9.3418 0.00130808 9.54512 2.63127e-07C9.58808 -3.55023e-05 9.63096 0.00357484 9.6733 0.0107924L12.8543 0.464734C13.0263 0.490074 13.1855 0.570062 13.3085 0.692868C13.4314 0.815675 13.5116 0.974781 13.5371 1.14666L13.9925 4.33302C14.0214 4.54409 13.966 4.75806 13.8382 4.92853C13.7104 5.09899 13.5205 5.21221 13.3097 5.24361C13.2709 5.24987 13.2316 5.2528 13.1923 5.25237Z"
          fill="#414141"/>
    <path d="M13.4898 4.83215C13.3683 4.83207 13.2508 4.78818 13.159 4.70852C13.0671 4.62886 13.0071 4.51877 12.9899 4.39844L12.5662 1.43534L9.60244 1.01175C9.53668 1.00233 9.47342 0.980036 9.41628 0.946145C9.35914 0.912255 9.30925 0.867432 9.26946 0.814242C9.22967 0.761053 9.20076 0.700541 9.18438 0.636169C9.16801 0.571797 9.16449 0.504828 9.17403 0.439096C9.1826 0.373034 9.20432 0.309358 9.23791 0.251831C9.27151 0.194304 9.3163 0.144093 9.36963 0.104165C9.42297 0.0642365 9.48376 0.035401 9.54843 0.0193622C9.6131 0.00332349 9.68033 0.000406882 9.74615 0.0107847L13.0857 0.48766C13.1939 0.502964 13.2942 0.553014 13.3715 0.630268C13.4488 0.707523 13.4988 0.807794 13.5141 0.915971L13.9911 4.25477C14.0006 4.32047 13.9971 4.3874 13.9807 4.45173C13.9644 4.51606 13.9354 4.57652 13.8956 4.62965C13.8558 4.68279 13.806 4.72755 13.7488 4.76137C13.6917 4.7952 13.6284 4.81741 13.5627 4.82675C13.5386 4.83054 13.5142 4.83234 13.4898 4.83215Z"
          fill="#414141"/>
    <path d="M7.24389 7.56125C7.08476 7.56123 6.9292 7.51405 6.79688 7.42567C6.66456 7.33729 6.56142 7.21168 6.50048 7.06471C6.43954 6.91775 6.42354 6.75602 6.45451 6.59996C6.48548 6.44391 6.56203 6.30054 6.67448 6.18796L12.1709 0.692091C12.3233 0.547532 12.526 0.468161 12.736 0.470891C12.946 0.473621 13.1466 0.558237 13.2951 0.706707C13.4437 0.855177 13.5283 1.05576 13.531 1.26571C13.5337 1.47566 13.4544 1.67838 13.3098 1.83066L7.81263 7.32585C7.73811 7.40075 7.64948 7.46012 7.55185 7.50052C7.45422 7.54093 7.34955 7.56157 7.24389 7.56125Z"
          fill="#414141"/>
    <path d="M7.25528 7.25096C7.15527 7.25087 7.05753 7.22115 6.9744 7.16556C6.89127 7.10997 6.82648 7.03099 6.78822 6.93861C6.74996 6.84623 6.73994 6.74458 6.75943 6.64651C6.77892 6.54844 6.82704 6.45834 6.89771 6.38759L12.6559 0.630687C12.7512 0.535875 12.8803 0.482788 13.0147 0.483105C13.1491 0.483421 13.2779 0.537114 13.3728 0.632373C13.4676 0.727632 13.5207 0.856653 13.5204 0.991054C13.5201 1.12545 13.4664 1.25422 13.3711 1.34904L7.61285 7.10257C7.56604 7.14974 7.51033 7.18714 7.44895 7.21262C7.38757 7.23809 7.32174 7.25112 7.25528 7.25096Z"
          fill="#414141"/>
    <path d="M2.09145 14C1.53709 13.9989 1.00574 13.7783 0.613753 13.3864C0.221762 12.9945 0.00106985 12.4633 0 11.909V3.53707C0.00106985 2.98284 0.221762 2.45162 0.613753 2.05972C1.00574 1.66782 1.53709 1.44718 2.09145 1.44611H7.24383C7.45335 1.45217 7.65226 1.53964 7.79831 1.68995C7.94437 1.84026 8.02607 2.04157 8.02607 2.25113C8.02607 2.46069 7.94437 2.66199 7.79831 2.8123C7.65226 2.96261 7.45335 3.05009 7.24383 3.05615H2.09145C1.96351 3.05633 1.84084 3.10717 1.75031 3.19756C1.65978 3.28795 1.60875 3.41051 1.60839 3.53842V11.909C1.60875 12.0369 1.65978 12.1595 1.75031 12.2499C1.84084 12.3403 1.96351 12.3911 2.09145 12.3913H10.464C10.5919 12.3911 10.7145 12.3403 10.8049 12.2499C10.8953 12.1594 10.9462 12.0369 10.9464 11.909V6.75649C10.9524 6.54702 11.0399 6.34816 11.1903 6.20214C11.3406 6.05611 11.542 5.97443 11.7516 5.97443C11.9612 5.97443 12.1625 6.05611 12.3129 6.20214C12.4632 6.34816 12.5507 6.54702 12.5568 6.75649V11.9077C12.5557 12.4619 12.335 12.9931 11.943 13.385C11.551 13.7769 11.0197 13.9976 10.4653 13.9987L2.09145 14Z"
          fill="#414141"/>
</svg>
