<svg width="24" height="24" viewBox="0 0 24 24" fill="none" xmlns="http://www.w3.org/2000/svg">
<g clip-path="url(#clip0_303_23146)">
<rect width="24" height="24" rx="3" fill="white"/>
<rect opacity="0.1" width="24" height="24" rx="4" fill="#DA8B45"/>
<rect opacity="0.3" x="0.5" y="0.5" width="23" height="23" rx="3.5" stroke="#DA8B45"/>
<path d="M16.8579 7H8.14207C7.9208 7.00017 7.70434 7.06214 7.51897 7.1784C7.33359 7.29466 7.18725 7.4602 7.09773 7.65494C7.00821 7.84968 6.97934 8.06524 7.01463 8.27546C7.04993 8.48568 7.14786 8.68152 7.29656 8.83921L11.0738 12.8373V16.6078C11.0739 16.6815 11.0955 16.7537 11.1362 16.8162C11.1769 16.8786 11.2351 16.9287 11.3041 16.9608C11.3592 16.9869 11.4199 17.0004 11.4813 17C11.5739 16.9999 11.6637 16.9695 11.736 16.9137L12.5 16.3255L13.7734 15.3451C13.821 15.3084 13.8595 15.2618 13.8859 15.2089C13.9124 15.1559 13.9261 15.098 13.9262 15.0392V12.8373L17.7034 8.83921C17.8521 8.68152 17.9501 8.48568 17.9854 8.27546C18.0207 8.06524 17.9918 7.84968 17.9023 7.65494C17.8127 7.4602 17.6664 7.29466 17.481 7.1784C17.2957 7.06214 17.0792 7.00017 16.8579 7Z" fill="#996130"/>
</g>
<defs>
<clipPath id="clip0_303_23146">
<rect width="24" height="24" rx="3" fill="white"/>
</clipPath>
</defs>
</svg>
