<svg width="14" height="14" viewBox="0 0 14 14" fill="none" xmlns="http://www.w3.org/2000/svg">
    <path d="M12.5465 1H1.45354C1.17193 1.00021 0.896438 1.07909 0.660501 1.22705C0.424564 1.37502 0.238324 1.58571 0.124385 1.83356C0.0104464 2.08141 -0.0262932 2.35576 0.0186256 2.62331C0.0635445 2.89086 0.18819 3.14012 0.377436 3.34082L5.18489 8.42923V13.2282C5.18493 13.322 5.21244 13.4139 5.26427 13.4933C5.31609 13.5728 5.39013 13.6365 5.4779 13.6774C5.54804 13.7106 5.62529 13.7277 5.70349 13.7273C5.82136 13.7272 5.93568 13.6884 6.02762 13.6175L7 12.8688L8.62064 11.621C8.68128 11.5743 8.73024 11.5151 8.7639 11.4477C8.79756 11.3803 8.81506 11.3065 8.81511 11.2317V8.42923L13.6226 3.34082C13.8118 3.14012 13.9365 2.89086 13.9814 2.62331C14.0263 2.35576 13.9896 2.08141 13.8756 1.83356C13.7617 1.58571 13.5754 1.37502 13.3395 1.22705C13.1036 1.07909 12.8281 1.00021 12.5465 1Z"
          fill="#414141"/>
</svg>
