<svg width="14" height="14" viewBox="0 0 14 14" fill="none" xmlns="http://www.w3.org/2000/svg">
    <path d="M12.6 0H1.4C0.630729 0 0 0.630729 0 1.4V12.6C0 13.3693 0.630729 14 1.4 14H12.6C13.3693 14 14 13.3693 14 12.6V1.4C14 0.630729 13.3693 0 12.6 0ZM4.2 12.6H1.4V9.8H4.2V12.6ZM4.2 8.4H1.4V5.6H4.2V8.4ZM4.2 4.2H1.4V1.4H4.2V4.2ZM8.4 12.6H5.6V9.8H8.4V12.6ZM8.4 8.4H5.6V5.6H8.4V8.4ZM8.4 4.2H5.6V1.4H8.4V4.2ZM12.6 12.6H9.8V9.8H12.6V12.6ZM12.6 8.4H9.8V5.6H12.6V8.4ZM12.6 4.2H9.8V1.4H12.6V4.2Z"
          fill="#414141"/>
</svg>
