<svg width="14" height="14" viewBox="0 0 14 14" fill="none" xmlns="http://www.w3.org/2000/svg">
    <path d="M5.98684 3.31276C6.11262 3.31283 6.23415 3.35826 6.32915 3.44069C6.42415 3.52313 6.48625 3.63705 6.50405 3.76156L6.94238 6.82782L10.0086 7.26615C10.0767 7.2759 10.1421 7.29897 10.2012 7.33404C10.2603 7.36911 10.312 7.4155 10.3531 7.47054C10.3943 7.52558 10.4242 7.5882 10.4412 7.65481C10.4581 7.72142 10.4617 7.79072 10.4519 7.85874C10.443 7.92711 10.4205 7.993 10.3858 8.05253C10.351 8.11206 10.3047 8.16402 10.2495 8.20533C10.1943 8.24665 10.1314 8.27649 10.0645 8.29309C9.99761 8.30969 9.92806 8.31271 9.85997 8.30197L6.40493 7.80849C6.29299 7.79265 6.18923 7.74086 6.10928 7.66092C6.02934 7.58097 5.97755 7.47721 5.96171 7.36527L5.46823 3.91023C5.45837 3.84225 5.46201 3.77299 5.47896 3.70642C5.49591 3.63986 5.52583 3.57729 5.567 3.5223C5.60818 3.46732 5.6598 3.421 5.7189 3.386C5.77801 3.351 5.84345 3.32801 5.91146 3.31834C5.93639 3.31443 5.9616 3.31256 5.98684 3.31276Z"
          fill="#414141"/>
    <path d="M7.49452 7.33727C7.32989 7.33725 7.16896 7.28842 7.03206 7.19697C6.89517 7.10551 6.78845 6.97553 6.72541 6.82344C6.66236 6.67136 6.64581 6.504 6.67786 6.34251C6.7099 6.18103 6.78909 6.03266 6.90542 5.91617L12.5919 0.228971C12.7495 0.0793801 12.9593 -0.0027547 13.1765 7.05432e-05C13.3938 0.00289579 13.6014 0.0904576 13.755 0.244096C13.9086 0.397735 13.9962 0.6053 13.999 0.82256C14.0018 1.03982 13.9197 1.24959 13.7701 1.40717L8.08293 7.09367C8.00583 7.17117 7.91413 7.23261 7.81313 7.27442C7.71213 7.31624 7.60384 7.3376 7.49452 7.33727Z"
          fill="#414141"/>
    <path d="M7.50623 7.01628C7.40276 7.01619 7.30163 6.98543 7.21563 6.92791C7.12963 6.87038 7.0626 6.78865 7.02302 6.69306C6.98344 6.59746 6.97307 6.49227 6.99323 6.39079C7.01339 6.2893 7.06318 6.19606 7.13629 6.12285L13.0936 0.165538C13.1922 0.0674255 13.3257 0.0124906 13.4648 0.0128178C13.6039 0.013145 13.7371 0.0687077 13.8352 0.167283C13.9333 0.265858 13.9883 0.399371 13.9879 0.53845C13.9876 0.677529 13.9321 0.810781 13.8335 0.908894L7.87616 6.86272C7.82773 6.91153 7.7701 6.95024 7.70659 6.9766C7.64309 7.00296 7.57498 7.01645 7.50623 7.01628Z"
          fill="#414141"/>
    <path d="M2.16376 14C1.59023 13.9989 1.04052 13.7706 0.634973 13.365C0.229429 12.9595 0.00110684 12.4098 0 11.8362V3.17283C0.00110684 2.59931 0.229429 2.04959 0.634973 1.64405C1.04052 1.2385 1.59023 1.01018 2.16376 1.00907H7.49428C7.71105 1.01535 7.91683 1.10587 8.06793 1.26141C8.21904 1.41695 8.30356 1.62527 8.30356 1.84212C8.30356 2.05897 8.21904 2.26729 8.06793 2.42283C7.91683 2.57837 7.71105 2.66889 7.49428 2.67517H2.16376C2.03139 2.67535 1.90449 2.72797 1.81083 2.8215C1.71716 2.91503 1.66437 3.04186 1.664 3.17423V11.8362C1.66437 11.9686 1.71716 12.0954 1.81083 12.189C1.90449 12.2825 2.03139 12.3351 2.16376 12.3353H10.8258C10.9581 12.3351 11.0849 12.2825 11.1785 12.1889C11.272 12.0954 11.3247 11.9685 11.3248 11.8362V6.50432C11.3311 6.28756 11.4216 6.08178 11.5772 5.93067C11.7327 5.77957 11.941 5.69504 12.1579 5.69504C12.3747 5.69504 12.5831 5.77957 12.7386 5.93067C12.8941 6.08178 12.9847 6.28756 12.9909 6.50432V11.8348C12.9898 12.4084 12.7615 12.9581 12.356 13.3636C11.9504 13.7692 11.4007 13.9975 10.8272 13.9986L2.16376 14Z"
          fill="#414141"/>
</svg>
