<svg width="14" height="14" viewBox="0 0 14 14" fill="none" xmlns="http://www.w3.org/2000/svg">
    <path d="M13.1284 6.1284H7.87159V0.871595C7.87159 0.392218 7.47938 0 7 0C6.52062 0 6.1284 0.392218 6.1284 0.871595V6.1284H0.871595C0.392218 6.1284 0 6.52062 0 7C0 7.23969 0.0980543 7.45759 0.256031 7.61556C0.414008 7.77354 0.631907 7.87159 0.871595 7.87159H6.1284V13.1284C6.1284 13.3681 6.22646 13.586 6.38444 13.744C6.54241 13.9019 6.76031 14 7 14C7.47938 14 7.87159 13.6078 7.87159 13.1284V7.87159H13.1284C13.6078 7.87159 14 7.47938 14 7C14 6.52062 13.6078 6.1284 13.1284 6.1284Z"
          fill="#414141"/>
</svg>
