<svg width="14" height="14" viewBox="0 0 14 14" fill="none" xmlns="http://www.w3.org/2000/svg">
    <path d="M12.8483 5.5392C12.7957 5.34214 12.6698 5.17443 12.4979 5.07255C12.326 4.97066 12.122 4.94283 11.9303 4.99512C11.7386 5.04741 11.5746 5.17559 11.4741 5.35177C11.3737 5.52796 11.3447 5.73789 11.3937 5.93593C11.6877 7.07068 11.5995 8.27466 11.1434 9.35105C10.6873 10.4274 9.89035 11.3125 8.88278 11.8617C7.87522 12.4108 6.71667 12.5915 5.59653 12.3742C4.4764 12.1569 3.46093 11.5544 2.71615 10.6653C1.97137 9.77623 1.54133 8.65308 1.49633 7.47949C1.45134 6.30589 1.79404 5.15128 2.46843 4.2044C3.14282 3.25753 4.10899 2.5744 5.209 2.26671C6.08618 2.02134 7.0071 2.02629 7.87485 2.27442C8.11938 2.34434 8.11556 2.66571 7.87781 2.75602C7.77405 2.79497 7.68256 2.8623 7.61315 2.95079C7.54373 3.03929 7.49903 3.1456 7.48384 3.2583C7.46865 3.371 7.48354 3.48584 7.52692 3.59048C7.57029 3.69511 7.64052 3.7856 7.73004 3.8522L7.73094 3.85288C7.81148 3.91278 7.90406 3.95326 8.00183 3.97131C8.0996 3.98937 8.20006 3.98453 8.29577 3.95718L10.5021 3.32626C10.5715 3.30639 10.6323 3.26279 10.6744 3.20261C10.7166 3.14243 10.7376 3.06925 10.7341 2.99512L10.6211 0.638649C10.6162 0.536416 10.589 0.436627 10.5416 0.346674C10.4942 0.256722 10.4278 0.178912 10.3472 0.11901L10.3463 0.118338C10.2568 0.0518012 10.1514 0.011643 10.0414 0.00217416C9.9314 -0.00729465 9.82098 0.0142835 9.72198 0.0645923C9.62298 0.114901 9.53915 0.192041 9.47949 0.287732C9.41982 0.383422 9.38657 0.494051 9.3833 0.607742C9.37438 0.88612 9.07937 1.06337 8.81948 0.963226C7.48621 0.449459 6.02056 0.396722 4.64731 0.823104C3.08421 1.30843 1.75415 2.37932 0.919125 3.82481C0.0841004 5.27031 -0.195346 6.98561 0.135831 8.63284C0.467009 10.2801 1.3848 11.7398 2.70842 12.7245C3.8161 13.5535 5.15 14 6.51903 14C6.87243 13.9999 7.22526 13.9705 7.5741 13.9121C8.47507 13.7623 9.33556 13.4195 10.1002 12.9061C10.8648 12.3926 11.5165 11.7198 12.0134 10.931C12.5102 10.1422 12.8412 9.2549 12.985 8.32624C13.1288 7.39758 13.0823 6.44817 12.8483 5.5392Z"
          fill="#414141"/>
</svg>
