<svg width="15" height="12" viewBox="0 0 15 12" fill="none" xmlns="http://www.w3.org/2000/svg">
    <path d="M4.95834 8.73173e-06L13.4583 9.47482e-06C13.8479 9.50888e-06 14.1667 0.31876 14.1667 0.708343L14.1667 10.625C14.1667 11.0146 13.8479 11.3333 13.4583 11.3333L4.95834 11.3333C4.56876 11.3333 4.25001 11.0146 4.25001 10.625L4.25001 0.708342C4.25001 0.318759 4.56876 8.69767e-06 4.95834 8.73173e-06ZM2.12501 8.50001L0.708339 8.50001C0.318755 8.50001 5.94188e-06 8.81876 5.90782e-06 9.20834L5.78397e-06 10.625C5.74991e-06 11.0146 0.318755 11.3333 0.708339 11.3333L2.12501 11.3333C2.51459 11.3333 2.83334 11.0146 2.83334 10.625L2.83334 9.20834C2.83334 8.81876 2.51459 8.50001 2.12501 8.50001ZM2.12501 8.48403e-06L0.70834 8.36018e-06C0.318756 8.32612e-06 6.68497e-06 0.318759 6.65091e-06 0.708341L6.52706e-06 2.12501C6.49301e-06 2.51459 0.318756 2.83334 0.708339 2.83334L2.12501 2.83334C2.51459 2.83334 2.83334 2.51459 2.83334 2.12501L2.83334 0.708342C2.83334 0.318759 2.51459 8.51809e-06 2.12501 8.48403e-06ZM2.12501 4.25001L0.708339 4.25001C0.318756 4.25001 6.31342e-06 4.56876 6.27937e-06 4.95834L6.15552e-06 6.37501C6.12146e-06 6.76459 0.318756 7.08334 0.708339 7.08334L2.12501 7.08334C2.51459 7.08334 2.83334 6.76459 2.83334 6.37501L2.83334 4.95834C2.83334 4.56876 2.51459 4.25001 2.12501 4.25001Z"
          fill="#414141"/>
</svg>
