<svg width="14" height="14" viewBox="0 0 14 14" fill="none" xmlns="http://www.w3.org/2000/svg">
    <path d="M0.933394 1.155C0.418627 1.155 0 1.57363 0 2.0884C0 2.60317 0.418627 3.02179 0.933394 3.02179H8.21201C8.72677 3.02179 9.1454 2.60317 9.1454 2.0884C9.1454 1.57363 8.72677 1.155 8.21201 1.155H0.933394Z"
          fill="#414141"/>
    <path d="M2.8002 4.42172C2.28543 4.42172 1.86681 4.84035 1.86681 5.35512C1.86681 5.86989 2.28543 6.28851 2.8002 6.28851H8.21202C8.72679 6.28851 9.14542 5.86989 9.14542 5.35512C9.14542 4.84035 8.72679 4.42172 8.21202 4.42172H2.8002Z"
          fill="#414141"/>
    <path d="M4.66697 7.68862C4.1522 7.68862 3.73357 8.10724 3.73357 8.62201C3.73357 9.13678 4.1522 9.55541 4.66697 9.55541H8.212C8.72677 9.55541 9.14539 9.13678 9.14539 8.62201C9.14539 8.10724 8.72677 7.68862 8.212 7.68862H4.66697Z"
          fill="#414141"/>
    <path d="M6.53377 10.9555C6.01901 10.9555 5.60038 11.3741 5.60038 11.8889C5.60038 12.4037 6.01901 12.8223 6.53377 12.8223H8.21202C8.72678 12.8223 9.14541 12.4037 9.14541 11.8889C9.14541 11.3741 8.72678 10.9555 8.21202 10.9555H6.53377Z"
          fill="#414141"/>
    <path d="M11.4971 1C12.0119 1 12.4305 1.41863 12.4305 1.93339V9.79164C12.6041 9.62923 12.8291 9.54056 13.0671 9.54056C13.3163 9.54056 13.5506 9.63763 13.727 9.81404C14.091 10.1776 14.091 10.7703 13.727 11.1339L12.157 12.7038C11.9806 12.8802 11.7463 12.9773 11.4971 12.9773C11.2479 12.9773 11.0136 12.8802 10.8372 12.7038L9.26722 11.1339C8.9032 10.7703 8.9032 10.1776 9.26722 9.81404C9.44363 9.63763 9.67792 9.54056 9.92713 9.54056C10.1656 9.54056 10.3906 9.62923 10.5637 9.79164V1.93339C10.5637 1.41863 10.9823 1 11.4971 1Z"
          fill="#414141"/>
</svg>
