<svg width="24" height="24" viewBox="0 0 24 24" fill="none" xmlns="http://www.w3.org/2000/svg">
<g clip-path="url(#clip0_303_23151)">
<rect width="24" height="24" rx="3" fill="white"/>
<rect opacity="0.1" width="24" height="24" rx="4" fill="#4A7194"/>
<rect opacity="0.3" x="0.5" y="0.5" width="23" height="23" rx="3.5" stroke="#4A7194"/>
<path d="M7.73338 7.12183C7.32892 7.12183 7 7.45075 7 7.85521C7 8.25967 7.32892 8.58859 7.73338 8.58859H13.4523C13.8568 8.58859 14.1857 8.25967 14.1857 7.85521C14.1857 7.45075 13.8568 7.12183 13.4523 7.12183H7.73338Z" fill="#4A7194"/>
<path d="M9.20015 9.68848C8.79569 9.68848 8.46677 10.0174 8.46677 10.4219C8.46677 10.8263 8.79569 11.1552 9.20015 11.1552H13.4523C13.8568 11.1552 14.1857 10.8263 14.1857 10.4219C14.1857 10.0174 13.8568 9.68848 13.4523 9.68848H9.20015Z" fill="#4A7194"/>
<path d="M10.6669 12.2554C10.2625 12.2554 9.93353 12.5843 9.93353 12.9888C9.93353 13.3932 10.2625 13.7221 10.6669 13.7221H13.4523C13.8568 13.7221 14.1857 13.3932 14.1857 12.9888C14.1857 12.5843 13.8568 12.2554 13.4523 12.2554H10.6669Z" fill="#4A7194"/>
<path d="M12.1337 14.8221C11.7292 14.8221 11.4003 15.1511 11.4003 15.5555C11.4003 15.96 11.7292 16.2889 12.1337 16.2889H13.4523C13.8568 16.2889 14.1857 15.96 14.1857 15.5555C14.1857 15.1511 13.8568 14.8221 13.4523 14.8221H12.1337Z" fill="#4A7194"/>
<path d="M16.0335 7C16.4379 7 16.7668 7.32892 16.7668 7.73338V13.9077C16.9033 13.7801 17.08 13.7104 17.267 13.7104C17.4628 13.7104 17.6469 13.7867 17.7855 13.9253C18.0715 14.211 18.0715 14.6767 17.7855 14.9623L16.552 16.1959C16.4134 16.3345 16.2293 16.4108 16.0335 16.4108C15.8376 16.4108 15.6536 16.3345 15.515 16.1959L14.2814 14.9623C13.9954 14.6767 13.9954 14.211 14.2814 13.9253C14.42 13.7867 14.6041 13.7104 14.7999 13.7104C14.9873 13.7104 15.164 13.7801 15.3001 13.9077V7.73338C15.3001 7.32892 15.629 7 16.0335 7Z" fill="#4A7194"/>
</g>
<defs>
<clipPath id="clip0_303_23151">
<rect width="24" height="24" rx="3" fill="white"/>
</clipPath>
</defs>
</svg>
