<svg width="14" height="14" viewBox="0 0 14 14" fill="none" xmlns="http://www.w3.org/2000/svg">
    <path d="M7.55397 1.27994C7.27987 1.10789 6.87454 1 6.4488 1C6.03181 1 5.56524 1.0729 5.08701 1.26827C3.73106 1.82232 2.92915 2.59215 2.72211 2.79627C2.51799 3.0004 2.23222 3.32116 2.05434 3.57194C1.87646 3.82563 2.10975 4.1843 1.87646 4.41759C1.64318 4.65087 1.15621 4.41759 1.15621 4.41759C1.11538 4.41759 1.07164 4.43217 1.04248 4.46424L0.0481145 5.45278C-0.0160382 5.51401 -0.0160382 5.61899 0.0481145 5.68023L1.89979 7.52024C1.93187 7.55232 1.97269 7.5669 2.01352 7.5669C2.05434 7.5669 2.09808 7.55232 2.12724 7.52024L3.09536 6.50546C3.15952 6.44423 3.15952 6.33925 3.09536 6.27801C3.09536 6.27801 2.94081 6.12638 2.74252 5.92809C2.54423 5.7298 2.76585 5.3653 2.89707 5.24574C3.0283 5.12618 3.23533 5.04745 3.51236 5.04745C3.63775 5.04745 3.72814 5.06786 3.84478 5.09994C4.20054 5.19908 4.59712 5.56359 5.32904 6.28968L5.21532 6.47922C5.14825 6.59003 5.18907 6.72125 5.25323 6.78249C5.25323 6.78249 5.10742 6.6396 5.63523 7.16449L7.09324 5.78812C6.53628 5.23699 6.67042 5.37696 6.67042 5.37696C6.62959 5.33614 6.55961 5.30989 6.48671 5.30989C6.44588 5.30989 6.40214 5.31864 6.36423 5.33905L6.20093 5.42653C5.38445 4.61588 5.17158 4.25429 5.20074 3.62734C5.23281 2.97415 5.55941 2.5455 6.09013 2.0906C6.81039 1.47531 7.85724 1.64736 7.85724 1.64736C8.09052 1.64444 7.73477 1.39658 7.55397 1.27994ZM13.0186 11.2615C13.0186 11.2615 11.0095 9.59354 9.22194 7.88766L7.831 9.36317C9.53687 11.1303 11.1815 13.084 11.1815 13.084C11.2136 13.1161 11.2544 13.1307 11.2952 13.1307C11.3361 13.1307 11.3798 13.1161 11.409 13.084L13.0157 11.489C13.0798 11.4277 13.0798 11.3227 13.0186 11.2615Z"
          fill="#414141"/>
    <path d="M13.5056 3.25409L11.9776 4.78792L10.4875 4.51673L10.2192 3.02664L11.7472 1.49281C11.4235 1.16913 10.9657 1.00875 10.61 1.00875C10.5896 1.00875 10.5691 1.00875 10.5516 1.01166C10.1871 1.02916 9.40856 1.2362 8.80494 1.87772C8.22173 2.493 7.60645 3.64484 8.15175 4.91914C8.2159 5.07369 8.2888 5.2749 8.07302 5.4936C8.02928 5.53442 7.78433 5.76771 7.41691 6.11471C7.31193 6.21386 7.20112 6.31884 7.07865 6.43548C6.84537 6.65709 6.58001 6.90787 6.29716 7.17032C6.18635 7.27529 6.07262 7.38027 5.9589 7.49108C4.29676 9.0599 2.25845 10.9757 2.25845 10.9757C1.73357 11.4277 1.77148 12.2617 2.25554 12.7487C2.5034 12.9936 2.83874 13.1219 3.16826 13.1219C3.48902 13.1219 3.80687 12.9995 4.02848 12.7399C4.02848 12.7399 5.93848 10.7045 7.50731 9.03949C7.6152 8.92285 7.72309 8.81204 7.82807 8.69832C8.09926 8.40963 8.35295 8.14135 8.58041 7.90224C8.69413 7.77977 8.80202 7.66604 8.90117 7.56398C9.23651 7.20822 9.46396 6.96911 9.51354 6.92245C9.63018 6.80873 9.73807 6.77374 9.83721 6.77374C9.93344 6.77374 10.018 6.80873 10.088 6.84372C10.3767 6.99244 10.7004 7.05659 11.0328 7.05659C11.8114 7.05659 12.6366 6.695 13.1352 6.19636C13.8468 5.48485 13.9751 4.79958 13.9984 4.44674C14.0159 4.10265 13.8934 3.64192 13.5056 3.25409ZM3.53859 12.0255C3.37821 12.183 3.11868 12.183 2.96122 12.0255C2.80375 11.8651 2.80375 11.6056 2.96122 11.4481C3.1216 11.2907 3.38113 11.2907 3.53859 11.4481C3.69606 11.6085 3.69606 11.868 3.53859 12.0255Z"
          fill="#414141"/>
</svg>
