<svg width="14" height="14" viewBox="0 0 14 14" fill="none" xmlns="http://www.w3.org/2000/svg">
    <path d="M6.7518 6.74384C7.67828 6.74384 8.48055 6.41155 9.13605 5.75594C9.79155 5.10044 10.1238 4.2984 10.1238 3.37181C10.1238 2.44555 9.79155 1.6434 9.13594 0.987682C8.48033 0.332289 7.67818 0 6.7518 0C5.82521 0 5.02316 0.332289 4.36766 0.987789C3.71216 1.64329 3.37976 2.44544 3.37976 3.37181C3.37976 4.2984 3.71216 5.10055 4.36777 5.75605C5.02338 6.41144 5.82553 6.74384 6.7518 6.74384Z"
          fill="#414141"/>
    <path d="M12.652 10.7653C12.6331 10.4925 12.5948 10.1949 12.5385 9.88067C12.4817 9.56408 12.4085 9.2648 12.321 8.99125C12.2305 8.70852 12.1074 8.42932 11.9553 8.16176C11.7975 7.88405 11.612 7.64223 11.404 7.44324C11.1864 7.23506 10.92 7.06769 10.612 6.94561C10.305 6.82416 9.9648 6.76264 9.60089 6.76264C9.45798 6.76264 9.31976 6.82128 9.05284 6.99506C8.88857 7.10219 8.69641 7.22609 8.48193 7.36313C8.29854 7.47998 8.05009 7.58946 7.74323 7.68858C7.44383 7.78546 7.13985 7.83459 6.83981 7.83459C6.53978 7.83459 6.2359 7.78546 5.93619 7.68858C5.62964 7.58957 5.3812 7.48009 5.19801 7.36324C4.98557 7.22748 4.7933 7.10358 4.62657 6.99495C4.35997 6.82117 4.22165 6.76253 4.07874 6.76253C3.71472 6.76253 3.37463 6.82416 3.06776 6.94571C2.75993 7.06758 2.49344 7.23496 2.27565 7.44335C2.06769 7.64244 1.88216 7.88415 1.7245 8.16176C1.57251 8.42932 1.44946 8.70842 1.35889 8.99136C1.27141 9.2649 1.19824 9.56408 1.14142 9.88067C1.08513 10.1945 1.04689 10.4922 1.02798 10.7656C1.0094 11.0335 1 11.3115 1 11.5923C1 12.3231 1.23232 12.9147 1.69043 13.3511C2.14288 13.7816 2.74156 14.0001 3.46959 14.0001H10.2107C10.9387 14.0001 11.5372 13.7817 11.9897 13.3511C12.448 12.9151 12.6803 12.3233 12.6803 11.5922C12.6802 11.3101 12.6707 11.0319 12.652 10.7653Z"
          fill="#414141"/>
</svg>
