<svg width="14" height="14" viewBox="0 0 14 14" fill="none" xmlns="http://www.w3.org/2000/svg">
    <path d="M8.65881 7L13.6591 1.99843C14.1136 1.54374 14.1136 0.795705 13.6591 0.341016C13.2045 -0.113672 12.4567 -0.113672 12.0021 0.341016L7.00183 5.34259L2.00157 0.341016C1.547 -0.113672 0.799162 -0.113672 0.344593 0.341016C0.117308 0.56836 0 0.869042 0 1.16972C0 1.4704 0.117308 1.77108 0.344593 1.99843L5.34485 7L0.344593 12.0016C0.117308 12.2289 0 12.5296 0 12.8303C0 13.131 0.117308 13.4316 0.344593 13.659C0.799162 14.1137 1.547 14.1137 2.00157 13.659L7.00183 8.65741L12.0021 13.659C12.4567 14.1137 13.2045 14.1137 13.6591 13.659C14.1136 13.2043 14.1136 12.4563 13.6591 12.0016L8.65881 7Z"
          fill="#414141"/>
</svg>
