<svg width="14" height="14" viewBox="0 0 14 14" fill="none" xmlns="http://www.w3.org/2000/svg">
    <g clip-path="url(#clip0_75_1847)">
        <path d="M5.25 0.875H8.75V4.375H5.25V0.875Z" fill="#414141"/>
        <path d="M9.625 5.25H13.125V8.75H9.625V5.25Z" fill="#414141"/>
        <path d="M0.875 5.25H4.375V8.75H0.875V5.25Z" fill="#414141"/>
        <path d="M5.25 5.25H8.75V8.75H5.25V5.25Z" fill="#414141"/>
        <path d="M13.125 2.625C13.125 2.16087 12.9406 1.71575 12.6124 1.38756C12.2842 1.05937 11.8391 0.875 11.375 0.875H9.625V4.375H13.125V2.625Z"
              fill="#414141"/>
        <path d="M4.375 0.875H2.625C2.16087 0.875 1.71575 1.05937 1.38756 1.38756C1.05937 1.71575 0.875 2.16087 0.875 2.625V4.375H4.375V0.875Z"
              fill="#414141"/>
        <path d="M9.625 13.125H11.375C11.8391 13.125 12.2842 12.9406 12.6124 12.6124C12.9406 12.2842 13.125 11.8391 13.125 11.375V9.625H9.625V13.125Z"
              fill="#414141"/>
        <path d="M5.25 9.625H8.75V13.125H5.25V9.625Z" fill="#414141"/>
        <path d="M0.875 11.55C0.875 12.0141 1.05937 12.4592 1.38756 12.7874C1.71575 13.1156 2.16087 13.3 2.625 13.3H4.375V9.79999H0.875V11.55Z"
              fill="#414141"/>
        <path d="M7 0.875H8.75V4.375H7V0.875Z" fill="#414141"/>
        <path d="M7 5.25H8.75V8.75H7V5.25Z" fill="#414141"/>
        <path d="M7 9.625H8.75V13.125H7V9.625Z" fill="#414141"/>
        <path d="M13.125 2.625C13.125 2.16087 12.9406 1.71575 12.6124 1.38756C12.2842 1.05937 11.8391 0.875 11.375 0.875H9.625V4.375H13.125V2.625Z"
              fill="#414141"/>
        <path d="M9.625 13.125H11.375C11.8391 13.125 12.2842 12.9406 12.6124 12.6124C12.9406 12.2842 13.125 11.8391 13.125 11.375V9.625H9.625V13.125Z"
              fill="#414141"/>
        <path d="M9.625 5.25H13.125V8.75H9.625V5.25Z" fill="#414141"/>
    </g>
    <defs>
        <clipPath id="clip0_75_1847">
            <rect width="14" height="14" fill="white"/>
        </clipPath>
    </defs>
</svg>
