<svg width="24" height="24" viewBox="0 0 24 24" fill="none" xmlns="http://www.w3.org/2000/svg">
<g clip-path="url(#clip0_303_23125)">
<rect width="24" height="24" fill="white"/>
<rect opacity="0.1" width="24" height="24" rx="4" fill="#54B399"/>
<rect opacity="0.3" x="0.5" y="0.5" width="23" height="23" rx="3.5" stroke="#54B399"/>
<g clip-path="url(#clip1_303_23125)">
<path d="M10.5 6.75H13.5V9.75H10.5V6.75Z" fill="#5BB89D"/>
<path d="M14.25 10.5H17.25V13.5H14.25V10.5Z" fill="#765ACC"/>
<path d="M6.75 10.5H9.75V13.5H6.75V10.5Z" fill="#5BB89D"/>
<path d="M10.5 10.5H13.5V13.5H10.5V10.5Z" fill="#5BB89D"/>
<path d="M17.25 8.25C17.25 7.85218 17.092 7.47064 16.8107 7.18934C16.5294 6.90804 16.1478 6.75 15.75 6.75H14.25V9.75H17.25V8.25Z" fill="#765ACC"/>
<path d="M9.75 6.75H8.25C7.85218 6.75 7.47064 6.90804 7.18934 7.18934C6.90804 7.47064 6.75 7.85218 6.75 8.25V9.75H9.75V6.75Z" fill="#5BB89D"/>
<path d="M14.25 17.25H15.75C16.1478 17.25 16.5294 17.092 16.8107 16.8107C17.092 16.5294 17.25 16.1478 17.25 15.75V14.25H14.25V17.25Z" fill="#765ACC"/>
<path d="M10.5 14.25H13.5V17.25H10.5V14.25Z" fill="#5BB89D"/>
<path d="M6.75 15.9C6.75 16.2978 6.90804 16.6794 7.18934 16.9607C7.47064 17.242 7.85218 17.4 8.25 17.4H9.75V14.4H6.75V15.9Z" fill="#5BB89D"/>
<path d="M12 6.75H13.5V9.75H12V6.75Z" fill="#387765"/>
<path d="M12 10.5H13.5V13.5H12V10.5Z" fill="#387765"/>
<path d="M12 14.25H13.5V17.25H12V14.25Z" fill="#387765"/>
<path d="M17.25 8.25C17.25 7.85218 17.092 7.47064 16.8107 7.18934C16.5294 6.90804 16.1478 6.75 15.75 6.75H14.25V9.75H17.25V8.25Z" fill="#387765"/>
<path d="M14.25 17.25H15.75C16.1478 17.25 16.5294 17.092 16.8107 16.8107C17.092 16.5294 17.25 16.1478 17.25 15.75V14.25H14.25V17.25Z" fill="#387765"/>
<path d="M14.25 10.5H17.25V13.5H14.25V10.5Z" fill="#387765"/>
</g>
</g>
<defs>
<clipPath id="clip0_303_23125">
<rect width="24" height="24" fill="white"/>
</clipPath>
<clipPath id="clip1_303_23125">
<rect width="12" height="12" fill="white" transform="translate(6 6)"/>
</clipPath>
</defs>
</svg>
