<svg width="14" height="14" viewBox="0 0 14 14" fill="none" xmlns="http://www.w3.org/2000/svg">
    <path d="M12.5658 3.51818e-10H1.42469C1.04684 3.51818e-10 0.684466 0.150101 0.417283 0.417283C0.150101 0.684466 0 1.04684 0 1.42469V12.5753C0 12.9532 0.150101 13.3155 0.417283 13.5827C0.684466 13.8499 1.04684 14 1.42469 14H12.5658C12.9437 14 13.306 13.8499 13.5732 13.5827C13.8404 13.3155 13.9905 12.9532 13.9905 12.5753V1.43419C13.9918 1.2463 13.9558 1.06002 13.8848 0.886068C13.8138 0.712119 13.709 0.553939 13.5766 0.420636C13.4442 0.287333 13.2867 0.181541 13.1132 0.10935C12.9397 0.037159 12.7537 -4.17515e-06 12.5658 3.51818e-10ZM4.42368 13.2972H1.42469C1.23577 13.2972 1.05458 13.2221 0.920989 13.0885C0.787398 12.9549 0.712347 12.7737 0.712347 12.5848V11.3501H4.42368V13.2972ZM4.42368 10.6377H0.702849V8.69064H4.42368V10.6377ZM4.42368 7.97829H0.702849V6.03121H4.42368V7.97829ZM4.42368 5.31886H0.702849V3.37178H4.42368V5.31886ZM8.85448 13.2972H5.13602V11.3501H8.85448V13.2972ZM8.85448 10.6377H5.13602V8.69064H8.85448V10.6377ZM8.85448 7.97829H5.13602V6.03121H8.85448V7.97829ZM8.85448 5.31886H5.13602V3.37178H8.85448V5.31886ZM13.2877 12.5753C13.2877 12.7642 13.2126 12.9454 13.079 13.079C12.9454 13.2126 12.7642 13.2877 12.5753 13.2877H9.56683V11.3501H13.2877V12.5753ZM13.2877 10.6377H9.56683V8.69064H13.2877V10.6377ZM13.2877 7.97829H9.56683V6.03121H13.2877V7.97829ZM13.2877 5.31886H9.56683V3.37178H13.2877V5.31886Z"
          fill="#414141"/>
</svg>
