<svg width="14" height="14" viewBox="0 0 14 14" fill="none" xmlns="http://www.w3.org/2000/svg">
<path fill-rule="evenodd" clip-rule="evenodd" d="M2.2241 0.66856C3.51468 0.235007 5.23235 0 7 0C8.76765 0 10.4853 0.235007 11.7759 0.66856C12.4204 0.885081 12.9583 1.15099 13.3437 1.46355C13.7289 1.77597 14 2.16905 14 2.625V11.375C14 11.831 13.7289 12.224 13.3437 12.5365C12.9583 12.849 12.4204 13.1149 11.7759 13.3314C10.4853 13.765 8.76765 14 7 14C5.23235 14 3.51468 13.765 2.2241 13.3314C1.57958 13.1149 1.04166 12.849 0.656272 12.5365C0.271054 12.224 0 11.831 0 11.375V2.625C0 2.16905 0.271054 1.77597 0.656272 1.46355C1.04166 1.15099 1.57958 0.885081 2.2241 0.66856ZM0.976744 4.01431V7C0.976744 7.12421 1.04871 7.29941 1.31181 7.51279C1.57473 7.72603 1.99042 7.94344 2.56706 8.13715C3.71882 8.52407 5.31367 8.75 7 8.75C8.68633 8.75 10.2812 8.52407 11.4329 8.13715C12.0096 7.94344 12.4253 7.72603 12.6882 7.51279C12.9513 7.29941 13.0233 7.12421 13.0233 7V4.01431C12.6798 4.23019 12.2576 4.41961 11.7759 4.58144C10.4853 5.01499 8.76765 5.25 7 5.25C5.23235 5.25 3.51468 5.01499 2.2241 4.58144C1.74237 4.41961 1.32019 4.23019 0.976744 4.01431ZM13.0233 2.625C13.0233 2.74921 12.9513 2.92441 12.6882 3.13779C12.4253 3.35103 12.0096 3.56844 11.4329 3.76215C10.2812 4.14907 8.68633 4.375 7 4.375C5.31367 4.375 3.71882 4.14907 2.56706 3.76215C1.99042 3.56844 1.57473 3.35103 1.31181 3.13779C1.04871 2.92441 0.976744 2.74921 0.976744 2.625C0.976744 2.50079 1.04871 2.32559 1.31181 2.11221C1.57473 1.89897 1.99042 1.68156 2.56706 1.48785C3.71882 1.10093 5.31367 0.875 7 0.875C8.68633 0.875 10.2812 1.10093 11.4329 1.48785C12.0096 1.68156 12.4253 1.89897 12.6882 2.11221C12.9513 2.32559 13.0233 2.50079 13.0233 2.625ZM13.0233 8.38931C12.6798 8.60519 12.2576 8.79461 11.7759 8.95644C10.4853 9.38999 8.76765 9.625 7 9.625C5.23235 9.625 3.51468 9.38999 2.2241 8.95644C1.74237 8.79461 1.32019 8.60519 0.976744 8.38931V11.375C0.976744 11.4992 1.04871 11.6744 1.31181 11.8878C1.57473 12.101 1.99042 12.3184 2.56706 12.5122C3.71882 12.8991 5.31367 13.125 7 13.125C8.68633 13.125 10.2812 12.8991 11.4329 12.5122C12.0096 12.3184 12.4253 12.101 12.6882 11.8878C12.9513 11.6744 13.0233 11.4992 13.0233 11.375V8.38931Z" fill="#414141"/>
</svg>
