<svg width="14" height="14" viewBox="0 0 14 14" fill="none" xmlns="http://www.w3.org/2000/svg">
    <path d="M3.15277 4.50017H3.91111V3.04082C3.91111 1.39398 5.23819 0.0252599 6.90337 0.00026036C8.59066 -0.0216142 9.97777 1.33773 9.97777 3.0002V4.50017H10.7361C11.4312 4.50017 12 5.06266 12 5.75014V11.75C12 12.4375 11.4312 13 10.7361 13H3.15277C2.45764 13 1.88889 12.4375 1.88889 11.75V5.75014C1.88889 5.06266 2.45764 4.50017 3.15277 4.50017ZM6.50208 8.40009V10.55C6.50208 10.7844 6.68534 10.9875 6.92232 11C7.1751 11.0125 7.3868 10.8125 7.3868 10.5625V8.40009C7.75017 8.2251 7.99031 7.84385 7.95239 7.40949C7.90816 6.92512 7.50687 6.53763 7.01712 6.50326C6.42625 6.46263 5.93333 6.92512 5.93333 7.50011C5.93333 7.89698 6.16399 8.2376 6.50208 8.40009ZM4.79583 4.50017H9.09305V3.0002C9.09305 2.43459 8.86871 1.90335 8.46111 1.50023C8.0535 1.09711 7.51635 0.875243 6.94444 0.875243C6.37253 0.875243 5.83538 1.09711 5.42777 1.50023C5.02017 1.90335 4.79583 2.43459 4.79583 3.0002V4.50017Z"
          fill="#414141"/>
</svg>
