<svg width="25" height="26" viewBox="0 0 25 26" fill="none" xmlns="http://www.w3.org/2000/svg">
<g clip-path="url(#clip0_390_34628)">
<path d="M24.9031 15.546C24.7532 15.0889 24.3606 14.7705 23.8527 14.694C23.6133 14.658 23.339 14.6734 23.0145 14.7408C22.449 14.8583 22.0293 14.903 21.7231 14.9117C22.879 12.9464 23.8189 10.7052 24.36 8.59548C25.235 5.18426 24.7674 3.63023 24.2211 2.92725C22.7751 1.06676 20.6655 0.0672054 18.1203 0.0365654C16.7626 0.0198791 15.5707 0.289825 14.949 0.483898C14.37 0.381106 13.7475 0.323663 13.0943 0.313023C11.8701 0.293372 10.7884 0.562097 9.86409 1.11443C9.35225 0.940243 8.53106 0.694599 7.58262 0.537794C5.3519 0.169009 3.5541 0.456398 2.23909 1.39188C0.646708 2.52457 -0.0915143 4.49251 0.0450331 7.2411C0.0883356 8.11379 0.573151 10.7689 1.33643 13.287C1.77511 14.7343 2.2429 15.9362 2.72679 16.8596C3.41299 18.169 4.14723 18.9401 4.97153 19.217C5.4336 19.3721 6.27304 19.4805 7.156 18.7402C7.2679 18.8766 7.41715 19.0122 7.61536 19.1382C7.86697 19.298 8.17471 19.4286 8.48199 19.5059C9.58955 19.7848 10.627 19.715 11.512 19.3243C11.5174 19.4828 11.5217 19.6342 11.5252 19.765C11.5311 19.9771 11.5369 20.1851 11.5446 20.3796C11.5971 21.6948 11.6859 22.7175 11.9492 23.4329C11.9636 23.4724 11.9831 23.5323 12.0036 23.5958C12.1349 24.0008 12.3546 24.6788 12.9133 25.2098C13.492 25.7597 14.1919 25.9284 14.8329 25.9284C15.1544 25.9284 15.4611 25.8859 15.7301 25.8279C16.6892 25.6209 17.7783 25.3056 18.5662 24.1759C19.3111 23.1079 19.6732 21.4994 19.7387 18.9648C19.7472 18.8932 19.7551 18.8248 19.7626 18.7595C19.7677 18.7155 19.7729 18.6705 19.7782 18.6256L19.9537 18.6412L19.9989 18.6442C20.9757 18.6891 22.17 18.4805 22.9035 18.1374C23.4831 17.8665 25.3404 16.8792 24.9031 15.546Z" fill="black"/>
<path d="M23.233 15.8053C20.3287 16.4086 20.129 15.4184 20.129 15.4184C23.1955 10.8365 24.4774 5.02038 23.3711 3.59692C20.3532 -0.285989 15.1291 1.55038 15.0419 1.59805L15.0139 1.60311C14.4401 1.48317 13.7979 1.41171 13.0762 1.39985C11.7621 1.37817 10.7652 1.74678 10.0088 2.3244C10.0088 2.3244 0.689495 -1.54165 1.12292 7.18669C1.21513 9.04358 3.76588 21.2367 6.80832 17.5538C7.92033 16.2071 8.99475 15.0684 8.99475 15.0684C9.52841 15.4254 10.1673 15.6075 10.837 15.5421L10.889 15.4976C10.8729 15.6648 10.8803 15.8284 10.9099 16.022C10.1261 16.9038 10.3564 17.0587 8.78961 17.3834C7.20422 17.7124 8.13557 18.2982 8.74365 18.4513C9.48083 18.6369 11.1863 18.8999 12.3387 17.2755L12.2927 17.4608C12.5998 17.7085 12.8155 19.0719 12.7793 20.3079C12.7432 21.5439 12.7191 22.3925 12.961 23.0553C13.203 23.7181 13.4442 25.2094 15.5039 24.7649C17.2249 24.3935 18.1168 23.4311 18.2409 21.8256C18.3289 20.6843 18.5282 20.853 18.5408 19.8326L18.7006 19.3495C18.8849 17.8023 18.7299 17.3032 19.7902 17.5353L20.0479 17.5581C20.8283 17.5939 21.8497 17.4317 22.4492 17.1512C23.7401 16.5479 24.5057 15.5407 23.2329 15.8053H23.233Z" fill="#336791"/>
<path d="M10.5543 8.01711C10.2927 7.98042 10.0556 8.01438 9.93569 8.10577C9.86819 8.15723 9.84735 8.21682 9.84175 8.25787C9.82668 8.36653 9.90232 8.48665 9.94874 8.54863C10.0801 8.72404 10.2722 8.84462 10.4622 8.87119C10.4898 8.87503 10.5172 8.87689 10.5444 8.87689C10.8614 8.87689 11.1495 8.6284 11.1749 8.44496C11.2066 8.21525 10.8755 8.06211 10.5543 8.01711Z" fill="white"/>
<path d="M19.2247 8.02439C19.1997 7.84432 18.8814 7.79299 18.5795 7.83525C18.278 7.87758 17.9855 8.01462 18.0099 8.19509C18.0296 8.33544 18.2811 8.57503 18.5791 8.57497C18.6042 8.57497 18.6296 8.57329 18.6552 8.56968C18.854 8.54195 18.9999 8.4148 19.0692 8.34148C19.1748 8.22985 19.2358 8.10532 19.2247 8.02439Z" fill="white"/>
<path d="M24.1994 15.7368C24.0887 15.3996 23.7323 15.291 23.1401 15.4142C21.3818 15.7796 20.7521 15.5265 20.5453 15.3732C21.912 13.2765 23.0363 10.7422 23.6428 8.37758C23.9302 7.25751 24.0889 6.21732 24.1019 5.36951C24.1162 4.4388 23.9588 3.75501 23.6342 3.33727C22.3254 1.65317 20.4045 0.749845 18.0793 0.725019C16.4808 0.706937 15.1302 1.11892 14.8684 1.23474C14.317 1.09665 13.7159 1.01188 13.0616 1.00107C11.8615 0.981534 10.8243 1.27084 9.96542 1.8605C9.59239 1.72073 8.6283 1.38747 7.44937 1.19625C5.41103 0.865719 3.79135 1.11613 2.63546 1.94074C1.25624 2.92471 0.619522 4.68357 0.742905 7.16838C0.784418 8.00444 1.2574 10.5762 2.00393 13.0391C2.98655 16.2807 4.05463 18.1159 5.17853 18.4933C5.31005 18.5375 5.46179 18.5684 5.62899 18.5684C6.03898 18.5684 6.54158 18.3823 7.06456 17.7492C7.93321 16.6969 8.74423 15.8151 9.04319 15.4947C9.485 15.7335 9.97027 15.8668 10.4668 15.8802C10.4676 15.8933 10.4689 15.9064 10.4701 15.9194C10.3705 16.0383 10.2888 16.1426 10.2192 16.2316C9.87524 16.6713 9.80364 16.7628 8.69649 16.9924C8.38159 17.0578 7.54504 17.2314 7.53286 17.8218C7.51952 18.4669 8.52154 18.7378 8.63575 18.7665C9.03361 18.8668 9.41687 18.9163 9.7824 18.9163C10.6714 18.9162 11.4537 18.622 12.0789 18.0528C12.0596 20.3525 12.1549 22.6187 12.4291 23.3092C12.6536 23.8743 13.2023 25.2558 14.9354 25.2556C15.1896 25.2556 15.4696 25.2259 15.7775 25.1594C17.5862 24.7689 18.3715 23.9639 18.6754 22.1893C18.838 21.2408 19.117 18.9759 19.2482 17.761C19.5252 17.848 19.8818 17.8879 20.2672 17.8878C21.0711 17.8878 21.9987 17.7158 22.5805 17.4439C23.234 17.1383 24.4133 16.3883 24.1994 15.7368ZM19.8922 7.52734C19.8862 7.88601 19.8372 8.21159 19.7852 8.55148C19.7293 8.91701 19.6715 9.29492 19.6569 9.75371C19.6426 10.2002 19.6979 10.6644 19.7515 11.1132C19.8597 12.0199 19.9707 12.9533 19.5409 13.8744C19.4741 13.7549 19.4096 13.6245 19.3505 13.4802C19.2971 13.3498 19.1811 13.1403 19.0205 12.8503C18.3956 11.7218 16.9322 9.07911 17.6813 8.00072C17.9044 7.67967 18.4707 7.34972 19.8922 7.52734ZM18.1692 1.45131C20.2526 1.49765 21.9005 2.28249 23.0674 3.78391C23.9623 4.93555 22.9769 10.1758 20.124 14.6965C20.0958 14.6604 20.0672 14.624 20.0375 14.5867C20.0256 14.5718 20.0136 14.5566 20.0014 14.5412C20.7386 13.3152 20.5944 12.1022 20.4661 11.0268C20.4134 10.5854 20.3636 10.1685 20.3763 9.77702C20.3894 9.3619 20.4439 9.00602 20.4965 8.66183C20.5614 8.23764 20.6273 7.7988 20.6091 7.2814C20.6226 7.22716 20.6281 7.16303 20.621 7.08692C20.5746 6.59075 20.0121 5.10602 18.8656 3.76199C18.2385 3.02697 17.3239 2.20434 16.0752 1.64951C16.6123 1.53742 17.3468 1.43288 18.1692 1.45131ZM6.51115 17.2859C5.935 17.9834 5.53707 17.8498 5.40624 17.8059C4.55364 17.5195 3.56444 15.705 2.69227 12.8275C1.93759 10.3378 1.49654 7.8342 1.46167 7.13216C1.35145 4.91189 1.88592 3.36448 3.0503 2.53295C4.94522 1.17974 8.06069 1.98969 9.31254 2.40051C9.29452 2.41836 9.27582 2.4351 9.25797 2.45324C7.20376 4.54241 7.25249 8.11177 7.25751 8.32991C7.25734 8.4141 7.26433 8.53328 7.27397 8.69724C7.3093 9.29754 7.37506 10.4149 7.19937 11.6803C7.03604 12.8561 7.39597 14.007 8.18673 14.8378C8.2686 14.9238 8.35405 15.0046 8.44233 15.0805C8.09031 15.4601 7.32535 16.2995 6.51115 17.2859ZM8.70636 14.3363C8.069 13.6667 7.77957 12.7353 7.91213 11.7806C8.0977 10.4439 8.02916 9.27975 7.99239 8.65433C7.98725 8.56683 7.98269 8.49014 7.97997 8.42962C8.28009 8.16171 9.67079 7.41129 10.6625 7.64013C11.1152 7.74455 11.3909 8.05485 11.5056 8.58869C12.099 11.3523 11.5841 12.5042 11.1704 13.4298C11.0852 13.6205 11.0046 13.8007 10.9358 13.9872L10.8825 14.1313C10.7475 14.4958 10.6219 14.8347 10.5441 15.1565C9.86664 15.1544 9.20751 14.863 8.70636 14.3363ZM8.81034 18.0634C8.61254 18.0137 8.43459 17.9272 8.3302 17.8555C8.41739 17.8142 8.57258 17.758 8.84169 17.7022C10.1442 17.4321 10.3453 17.2416 10.7845 16.68C10.8853 16.5513 10.9994 16.4053 11.1575 16.2275C11.1576 16.2274 11.1576 16.2273 11.1577 16.2272C11.3932 15.9618 11.5009 16.0068 11.6962 16.0883C11.8545 16.1543 12.0087 16.3541 12.0712 16.574C12.1008 16.6778 12.134 16.875 12.0253 17.0283C11.1077 18.322 9.77062 18.3054 8.81034 18.0634ZM15.6266 24.4508C14.0333 24.7946 13.4691 23.9759 13.0974 23.04C12.8574 22.4358 12.7395 19.7111 12.8232 16.7023C12.8243 16.6623 12.8186 16.6236 12.8076 16.5872C12.7981 16.5171 12.7834 16.4461 12.7631 16.3746C12.6386 15.9368 12.3355 15.5706 11.9717 15.4188C11.8272 15.3585 11.5619 15.2479 11.2431 15.33C11.3112 15.0479 11.429 14.7295 11.5568 14.3846L11.6105 14.2395C11.6709 14.0759 11.7465 13.9065 11.8267 13.7272C12.2596 12.7587 12.8525 11.4322 12.209 8.43549C11.968 7.31309 11.1631 6.765 9.94296 6.89227C9.21144 6.96849 8.54227 7.26571 8.20849 7.43612C8.13673 7.47274 8.07108 7.50809 8.00977 7.54257C8.10289 6.41162 8.45491 4.29816 9.77154 2.96098C10.6005 2.11911 11.7045 1.70335 13.0497 1.72573C15.7001 1.76945 17.3997 3.13913 18.3588 4.28048C19.1853 5.26405 19.6329 6.25476 19.8116 6.78907C18.4683 6.65157 17.5547 6.91861 17.0916 7.5853C16.0841 9.03556 17.6428 11.8505 18.3919 13.2033C18.5293 13.4513 18.6479 13.6655 18.6852 13.7566C18.9291 14.3519 19.2449 14.7494 19.4755 15.0396C19.5462 15.1284 19.6148 15.2147 19.6669 15.29C19.2601 15.4081 18.5293 15.681 18.5959 17.045C18.5422 17.7295 18.1602 20.9339 17.9662 22.0661C17.7101 23.5618 17.1635 24.119 15.6266 24.4508ZM22.2774 16.7866C21.8614 16.981 21.1653 17.1269 20.5039 17.1582C19.7734 17.1927 19.4016 17.0758 19.3141 17.0039C19.273 16.1539 19.5872 16.0651 19.9198 15.9711C19.972 15.9563 20.023 15.9419 20.0722 15.9246C20.1028 15.9496 20.1363 15.9745 20.1729 15.9989C20.7601 16.3891 21.8073 16.4312 23.2856 16.1239C23.2911 16.1228 23.2965 16.1217 23.3019 16.1206C23.1025 16.3083 22.7613 16.5603 22.2774 16.7866Z" fill="white"/>
</g>
<defs>
<clipPath id="clip0_390_34628">
<rect width="25" height="25.9615" fill="white"/>
</clipPath>
</defs>
</svg>
