<svg width="14" height="14" viewBox="0 0 14 14" fill="none" xmlns="http://www.w3.org/2000/svg">
    <path d="M10.2119 9.1207L9.95128 9.46769L10.2581 9.77456L13.4198 12.9362C13.4736 13.0004 13.5022 13.0823 13.4999 13.1663C13.4974 13.254 13.4615 13.3374 13.3995 13.3995C13.3374 13.4615 13.254 13.4974 13.1663 13.4999C13.0823 13.5022 13.0004 13.4736 12.9362 13.4198L9.77456 10.2581L9.46769 9.95128L9.1207 10.2119C8.19025 10.9109 7.0577 11.2882 5.89399 11.2869H5.89344C2.91996 11.2869 0.5 8.86692 0.5 5.89344C0.5 2.91996 2.91996 0.5 5.89344 0.5C8.86692 0.5 11.2869 2.91996 11.2869 5.89344V5.89399C11.2882 7.0577 10.9109 8.19025 10.2119 9.1207ZM1.18384 5.89344L1.18384 5.89404C1.18534 7.14248 1.68194 8.33937 2.56473 9.22215C3.44751 10.1049 4.6444 10.6015 5.89284 10.603H5.89344C6.82491 10.603 7.73546 10.3268 8.50995 9.80933C9.28444 9.29183 9.88808 8.55629 10.2445 7.69572C10.601 6.83516 10.6943 5.88821 10.5125 4.97464C10.3308 4.06107 9.88228 3.2219 9.22363 2.56325C8.56498 1.9046 7.72581 1.45605 6.81224 1.27433C5.89866 1.09261 4.95172 1.18588 4.09115 1.54234C3.23059 1.8988 2.49505 2.50244 1.97755 3.27693C1.46005 4.05142 1.18384 4.96197 1.18384 5.89344Z"
          fill="#414141" stroke="#414141"/>
</svg>
