<svg width="14" height="14" viewBox="0 0 14 14" fill="none" xmlns="http://www.w3.org/2000/svg">
    <path d="M12.8443 7C12.8443 6.23438 13.3219 5.58177 14 5.31927C13.8214 4.57187 13.526 3.87187 13.1359 3.2375C12.9026 3.33958 12.6547 3.39427 12.4031 3.39427C11.9437 3.39427 11.4844 3.21927 11.1307 2.86927C10.5875 2.32604 10.4672 1.5276 10.7589 0.864062C10.1281 0.473958 9.42448 0.178646 8.68073 0C8.42188 0.674479 7.76562 1.15573 7 1.15573C6.23438 1.15573 5.57812 0.674479 5.31927 0C4.57187 0.178646 3.87187 0.473958 3.2375 0.864062C3.53281 1.52396 3.40885 2.32604 2.86563 2.86927C2.51563 3.21927 2.0526 3.39427 1.59323 3.39427C1.34167 3.39427 1.09375 3.34323 0.860417 3.2375C0.473958 3.87552 0.178646 4.57552 0 5.32292C0.674479 5.58177 1.15573 6.23438 1.15573 7.00365C1.15573 7.76927 0.678125 8.42188 0.00364578 8.68437C0.182292 9.43177 0.477604 10.1318 0.867708 10.7661C1.10104 10.6641 1.34896 10.613 1.59688 10.613C2.05625 10.613 2.51562 10.788 2.86927 11.138C3.40885 11.6776 3.53281 12.4797 3.24115 13.1396C3.87552 13.5297 4.57917 13.825 5.32292 14.0036C5.58177 13.3292 6.23438 12.8516 7 12.8516C7.76562 12.8516 8.41823 13.3292 8.67708 14.0036C9.42448 13.825 10.1245 13.5297 10.7589 13.1396C10.4672 12.4797 10.5911 11.6812 11.1307 11.138C11.4807 10.788 11.9401 10.613 12.4031 10.613C12.651 10.613 12.9026 10.6641 13.1323 10.7661C13.5224 10.1318 13.8177 9.42812 13.9964 8.68437C13.3255 8.42188 12.8443 7.76927 12.8443 7ZM7.03281 9.91302C5.41771 9.91302 4.11615 8.60417 4.11615 6.99635C4.11615 5.38854 5.41771 4.07969 7.03281 4.07969C8.64792 4.07969 9.94948 5.38854 9.94948 6.99635C9.94948 8.60417 8.64792 9.91302 7.03281 9.91302Z"
          fill="#414141"/>
</svg>
