<svg width="12" height="14" viewBox="0 0 12 14" fill="none" xmlns="http://www.w3.org/2000/svg">
    <path d="M5.55901e-07 9.1L9.23076e-07 0.7C9.39905e-07 0.315 0.337501 -5.09784e-07 0.750001 -4.91753e-07L11.25 -3.27835e-08C11.6625 -1.47526e-08 12 0.315 12 0.7L12 9.1C12 9.485 11.6625 9.8 11.25 9.8L0.750001 9.8C0.3375 9.8 5.39072e-07 9.485 5.55901e-07 9.1ZM9 11.9L9 13.3C9 13.685 9.3375 14 9.75 14L11.25 14C11.6625 14 12 13.685 12 13.3L12 11.9C12 11.515 11.6625 11.2 11.25 11.2L9.75 11.2C9.3375 11.2 9 11.515 9 11.9ZM4.33509e-07 11.9L3.72313e-07 13.3C3.55484e-07 13.685 0.3375 14 0.75 14L2.25 14C2.6625 14 3 13.685 3 13.3L3 11.9C3 11.515 2.6625 11.2 2.25 11.2L0.75 11.2C0.3375 11.2 4.50338e-07 11.515 4.33509e-07 11.9ZM4.5 11.9L4.5 13.3C4.5 13.685 4.8375 14 5.25 14L6.75 14C7.1625 14 7.5 13.685 7.5 13.3L7.5 11.9C7.5 11.515 7.1625 11.2 6.75 11.2L5.25 11.2C4.8375 11.2 4.5 11.515 4.5 11.9Z"
          fill="#414141"/>
</svg>
