<svg width="14" height="11" viewBox="0 0 14 11" fill="none" xmlns="http://www.w3.org/2000/svg">
    <path d="M9.1 11H0.7C0.315 11 0 10.6906 0 10.3125V0.6875C0 0.309375 0.315 0 0.7 0H9.1C9.485 0 9.8 0.309375 9.8 0.6875V10.3125C9.8 10.6906 9.485 11 9.1 11ZM11.9 2.75H13.3C13.685 2.75 14 2.44062 14 2.0625V0.6875C14 0.309375 13.685 0 13.3 0H11.9C11.515 0 11.2 0.309375 11.2 0.6875V2.0625C11.2 2.44062 11.515 2.75 11.9 2.75ZM11.9 11H13.3C13.685 11 14 10.6906 14 10.3125V8.9375C14 8.55937 13.685 8.25 13.3 8.25H11.9C11.515 8.25 11.2 8.55937 11.2 8.9375V10.3125C11.2 10.6906 11.515 11 11.9 11ZM11.9 6.875H13.3C13.685 6.875 14 6.56563 14 6.1875V4.8125C14 4.43437 13.685 4.125 13.3 4.125H11.9C11.515 4.125 11.2 4.43437 11.2 4.8125V6.1875C11.2 6.56563 11.515 6.875 11.9 6.875Z"
          fill="#414141"/>
</svg>
