<svg width="14" height="14" viewBox="0 0 14 14" fill="none" xmlns="http://www.w3.org/2000/svg">
    <path fill-rule="evenodd" clip-rule="evenodd"
          d="M3.82109 0H8.50501L12.4715 4.13643V12.1789C12.4715 13.1848 11.6563 14 10.6504 14L3.82109 14C2.81521 14 2 13.1848 2 12.1789V1.82113C2 0.815246 2.81521 0 3.82109 0Z"
          fill="#414141"/>
    <path fill-rule="evenodd" clip-rule="evenodd" d="M8.49958 0V4.10337L12.4715 4.10341L8.49958 0Z" fill="white"
          fill-opacity="0.302"/>
    <path d="M4.76654 10.1986C4.50989 10.1986 4.28542 10.1199 4.09296 9.96265C3.90047 9.80531 3.79576 9.61165 3.77877 9.38162L4.33805 9.21824C4.35018 9.34409 4.40104 9.44827 4.49052 9.5305C4.58012 9.61286 4.68181 9.65397 4.79561 9.65397C4.88997 9.65397 4.96624 9.63339 5.02435 9.59228C5.08246 9.55108 5.11146 9.49663 5.11146 9.4289C5.11146 9.3732 5.0885 9.32601 5.04251 9.28726C4.99656 9.24852 4.93656 9.21707 4.86274 9.19283C4.78897 9.16859 4.70665 9.14446 4.61584 9.12022C4.52507 9.09598 4.43491 9.06453 4.3453 9.02579C4.2557 8.98704 4.17407 8.94106 4.10017 8.88782C4.0264 8.83458 3.96639 8.76008 3.9204 8.66443C3.87445 8.56891 3.8515 8.45688 3.8515 8.32866C3.8515 8.12037 3.94038 7.94677 4.11838 7.80751C4.29625 7.66837 4.51118 7.59874 4.76283 7.59874C5.01223 7.59874 5.22953 7.65923 5.4147 7.78029C5.5999 7.90138 5.71552 8.05989 5.76151 8.25593L5.18048 8.49928C5.15386 8.39031 5.10421 8.30381 5.0316 8.23966C4.95899 8.1755 4.86943 8.14341 4.76283 8.14341C4.6806 8.14341 4.61584 8.15972 4.56856 8.1925C4.52141 8.22516 4.49789 8.26926 4.49789 8.32499C4.49789 8.37819 4.52926 8.4218 4.5922 8.45567C4.65519 8.48954 4.73323 8.51438 4.82642 8.53017C4.91969 8.54584 5.02069 8.57189 5.12962 8.60822C5.23859 8.64446 5.33967 8.68928 5.43286 8.7426C5.52601 8.79584 5.60409 8.87996 5.66704 8.99498C5.73002 9.10987 5.76151 9.24852 5.76151 9.41074C5.76151 9.64552 5.67014 9.83551 5.48727 9.98081C5.30456 10.126 5.0643 10.1986 4.76654 10.1986ZM8.61197 10.0861L8.21252 10.4456L7.87115 10.0788C7.68957 10.1587 7.4959 10.1986 7.2902 10.1986C6.90774 10.1986 6.59121 10.0752 6.34065 9.82827C6.09004 9.58136 5.9648 9.27148 5.9648 8.89873C5.9648 8.5259 6.09004 8.21602 6.34065 7.96912C6.59121 7.72221 6.90774 7.59874 7.2902 7.59874C7.66782 7.59874 7.98129 7.72221 8.23069 7.96912C8.47996 8.21602 8.60472 8.5259 8.60472 8.89873C8.60472 9.22799 8.50421 9.51234 8.30329 9.75199L8.61197 10.0861ZM7.28653 9.64672C7.33977 9.64672 7.3943 9.64064 7.44991 9.62856L7.07958 9.22919L7.48628 8.86607L7.87115 9.2836C7.92926 9.16255 7.95833 9.03432 7.95833 8.89873C7.95833 8.6832 7.89539 8.50476 7.76954 8.36313C7.64362 8.22149 7.48261 8.15066 7.28653 8.15066C7.09049 8.15066 6.92889 8.22149 6.80175 8.36313C6.67474 8.50476 6.61119 8.6832 6.61119 8.89873C6.61119 9.11418 6.67474 9.29274 6.80175 9.43425C6.92889 9.57589 7.09049 9.64672 7.28653 9.64672ZM8.93881 10.1696V7.62774H9.58878V9.61773H10.6927V10.1696H8.93881Z"
          fill="white"/>
</svg>
