<svg width="14" height="14" viewBox="0 0 14 14" fill="none" xmlns="http://www.w3.org/2000/svg">
    <path d="M10.75 5.50017H6.35849C5.53918 5.50017 4.875 4.82861 4.875 4.0002C4.875 3.43459 5.09688 2.90335 5.5 2.50023C5.90313 2.09711 6.43437 1.87524 7 1.87524C7.56563 1.87524 8.09688 2.09711 8.5 2.50023C8.90313 2.90335 9.125 3.43459 9.125 4.0002C9.125 4.24082 9.32188 4.43769 9.5625 4.43769C9.80313 4.43769 10 4.24082 10 4.0002C10 2.33773 8.62813 0.978386 6.95938 1.00026C5.3125 1.02213 4 2.39086 4 4.04082V4.74184C4 5.16065 3.66421 5.50017 3.25 5.50017C2.5625 5.50017 2 6.06266 2 6.75014V12.75C2 13.4375 2.5625 14 3.25 14H10.75C11.4375 14 12 13.4375 12 12.75V6.75014C12 6.06266 11.4375 5.50017 10.75 5.50017ZM8 8.50011C8 9.18658 7.4375 9.83667 7.4375 10.5231V11.55C7.4375 11.7844 7.25625 11.9875 7.02188 12C6.77188 12.0125 6.5625 11.8125 6.5625 11.5625V10.614C6.5625 9.87191 5.9393 9.1488 6.00313 8.40949C6.04688 7.92512 6.44375 7.53763 6.92813 7.50325C7.5125 7.46263 8 7.92512 8 8.50011Z"
          fill="#414141"/>
</svg>
