<svg width="85" height="85" viewBox="0 0 85 85" fill="none" xmlns="http://www.w3.org/2000/svg">
<rect x="0.5" y="0.5" width="84" height="84" rx="14.5" fill="url(#paint0_linear_476_30505)" stroke="white"/>
<g clip-path="url(#clip0_476_30505)">
<mask id="mask0_476_30505" style="mask-type:luminance" maskUnits="userSpaceOnUse" x="17" y="33" width="39" height="38">
<path d="M55.1656 45.471C53.6084 51.854 47.8427 56.6064 40.9867 56.6064H30.4193V33.2904H17V70.0266H17.3642C20.9592 69.9946 50.0566 69.0098 55.1656 45.471Z" fill="white"/>
</mask>
<g mask="url(#mask0_476_30505)">
<path d="M55.1656 45.471C53.6084 51.854 47.8427 56.6064 40.9867 56.6064H30.4193V33.2904H17V70.0266H17.3642C20.9592 69.9946 50.0566 69.0098 55.1656 45.471Z" fill="url(#paint1_linear_476_30505)"/>
</g>
<mask id="mask1_476_30505" style="mask-type:luminance" maskUnits="userSpaceOnUse" x="17" y="14" width="52" height="45">
<path d="M60.795 22.205C55.7257 17.1349 48.7222 14 40.9867 14H17V27.4192H40.9867C41.6703 27.4192 42.3419 27.4676 42.9996 27.5582C44.5601 27.7749 46.043 28.2384 47.4059 28.909C54.3154 31.6305 66.6246 39.2434 63.6882 58.4259C67.0294 53.8133 69 48.1433 69 42.0133C69 34.2778 65.8651 27.2742 60.795 22.205Z" fill="white"/>
</mask>
<g mask="url(#mask1_476_30505)">
<path d="M60.795 22.205C55.7257 17.1349 48.7222 14 40.9867 14H17V27.4192H40.9867C41.6703 27.4192 42.3419 27.4676 42.9996 27.5582C44.5601 27.7749 46.043 28.2384 47.4059 28.909C54.3154 31.6305 66.6246 39.2434 63.6882 58.4259C67.0294 53.8133 69 48.1433 69 42.0133C69 34.2778 65.8651 27.2742 60.795 22.205Z" fill="url(#paint2_linear_476_30505)"/>
</g>
<mask id="mask2_476_30505" style="mask-type:luminance" maskUnits="userSpaceOnUse" x="17" y="28" width="48" height="43">
<path d="M47.4059 28.909C52.243 31.2887 55.5807 36.2682 55.5807 42.0133C55.5807 43.2044 55.4366 44.3619 55.1656 45.471C50.0566 69.0098 20.9592 69.9946 17.3643 70.0266H40.9867C50.3277 70.0266 58.5983 65.4536 63.6882 58.4259C66.6246 39.2435 54.3154 31.6305 47.4059 28.909Z" fill="white"/>
</mask>
<g mask="url(#mask2_476_30505)">
<path d="M47.4059 28.909C52.243 31.2887 55.5807 36.2682 55.5807 42.0133C55.5807 43.2044 55.4366 44.3619 55.1656 45.471C50.0566 69.0098 20.9592 69.9946 17.3643 70.0266H40.9867C50.3277 70.0266 58.5983 65.4536 63.6882 58.4259C66.6246 39.2435 54.3154 31.6305 47.4059 28.909Z" fill="url(#paint3_linear_476_30505)"/>
</g>
</g>
<defs>
<linearGradient id="paint0_linear_476_30505" x1="27" y1="10" x2="85" y2="85" gradientUnits="userSpaceOnUse">
<stop stop-color="white"/>
<stop offset="1" stop-color="#B3F5FD"/>
</linearGradient>
<linearGradient id="paint1_linear_476_30505" x1="48.4986" y1="66.7095" x2="12.9369" y2="41.0447" gradientUnits="userSpaceOnUse">
<stop stop-color="#21B8F0"/>
<stop offset="1" stop-color="#2456A0"/>
</linearGradient>
<linearGradient id="paint2_linear_476_30505" x1="15.2047" y1="14.0078" x2="65.0247" y2="41.1823" gradientUnits="userSpaceOnUse">
<stop stop-color="#21B8F0"/>
<stop offset="1" stop-color="#2456A0"/>
</linearGradient>
<linearGradient id="paint3_linear_476_30505" x1="70.0202" y1="41.4393" x2="40.5782" y2="51.5049" gradientUnits="userSpaceOnUse">
<stop stop-color="#21B8F0"/>
<stop offset="1" stop-color="#2456A0"/>
</linearGradient>
<clipPath id="clip0_476_30505">
<rect width="52" height="57" fill="white" transform="translate(17 14)"/>
</clipPath>
</defs>
</svg>
